<?xml version="1.0" encoding="utf-8"?>
<!-- Generator: Adobe Illustrator 16.0.4, SVG Export Plug-In . SVG Version: 6.00 Build 0)  -->
<!DOCTYPE svg PUBLIC "-//W3C//DTD SVG 1.1//EN" "http://www.w3.org/Graphics/SVG/1.1/DTD/svg11.dtd">
<svg version="1.1" id="Layer_1" xmlns="http://www.w3.org/2000/svg" xmlns:xlink="http://www.w3.org/1999/xlink" x="0px" y="0px"
	 width="52px" height="52px" viewBox="0 0 52 52" enable-background="new 0 0 52 52" xml:space="preserve">
<g>
	<path fill="#FFFFFF" d="M38.857,13.142V41h-22.5c-1.776,0-3.215-1.438-3.215-3.216c0-1.774,1.438-3.215,3.215-3.215h20.354V8.857
		H15.285c-2.357,0-4.285,1.929-4.285,4.284v25.716c0,2.357,1.928,4.285,4.285,4.285H41V13.142H38.857z"/>
	<path fill="#FFFFFF" d="M38.857,13.142"/>
	<path fill="#FFFFFF" d="M16.359,36.717h-0.002c-0.592,0-1.072,0.479-1.072,1.067c0,0.595,0.48,1.072,1.072,1.072h20.354v-2.142
		H16.359V36.717z"/>
	<path fill="#FFFFFF" d="M16.359,36.717"/>
</g>
</svg>
