<?xml version="1.0" encoding="utf-8"?>
<!-- Generator: Adobe Illustrator 16.0.4, SVG Export Plug-In . SVG Version: 6.00 Build 0)  -->
<!DOCTYPE svg PUBLIC "-//W3C//DTD SVG 1.1//EN" "http://www.w3.org/Graphics/SVG/1.1/DTD/svg11.dtd">
<svg version="1.1" id="Layer_1" xmlns="http://www.w3.org/2000/svg" xmlns:xlink="http://www.w3.org/1999/xlink" x="0px" y="0px"
	 width="52px" height="52px" viewBox="0 0 52 52" enable-background="new 0 0 52 52" xml:space="preserve">
<path fill="#FFFFFF" d="M26.001,6.493C14.957,6.493,6,15.447,6,26.494c0,8.835,5.731,16.333,13.678,18.976
	c0.998,0.188,1.367-0.432,1.367-0.96c0-0.476-0.019-2.051-0.027-3.724c-5.566,1.208-6.738-2.358-6.738-2.358
	c-0.91-2.314-2.222-2.927-2.222-2.927c-1.812-1.243,0.138-1.219,0.138-1.219c2.008,0.145,3.067,2.064,3.067,2.064
	c1.782,3.058,4.678,2.172,5.819,1.662c0.18-1.294,0.696-2.176,1.27-2.677c-4.444-0.504-9.112-2.218-9.112-9.885
	c0-2.182,0.781-3.967,2.06-5.368c-0.208-0.504-0.892-2.537,0.195-5.292c0,0,1.678-0.538,5.499,2.051
	c1.596-0.442,3.308-0.666,5.008-0.674c1.697,0.009,3.412,0.232,5.008,0.674c3.817-2.587,5.496-2.051,5.496-2.051
	c1.086,2.755,0.402,4.788,0.195,5.292c1.281,1.401,2.06,3.186,2.06,5.368c0,7.684-4.681,9.375-9.134,9.869
	c0.718,0.619,1.355,1.837,1.355,3.704c0,2.677-0.021,4.829-0.021,5.487c0,0.534,0.36,1.156,1.373,0.961
	C40.277,42.821,46,35.326,46,26.493c0-11.046-8.954-20-20.001-20H26.001z"/>
</svg>
